{
    "asset" : {
        "generator" : "Khronos glTF Blender I/O v1.5.17",
        "version" : "2.0"
    },
    "extensionsUsed" : [
        "KHR_materials_unlit"
    ],
    "scene" : 0,
    "scenes" : [
        {
            "name" : "Scene",
            "nodes" : [
                9
            ]
        }
    ],
    "nodes" : [
        {
            "mesh" : 0,
            "name" : "Mesh_0"
        },
        {
            "mesh" : 1,
            "name" : "Mesh_1"
        },
        {
            "mesh" : 2,
            "name" : "Mesh_2"
        },
        {
            "mesh" : 3,
            "name" : "Mesh_3"
        },
        {
            "mesh" : 4,
            "name" : "Mesh_4"
        },
        {
            "mesh" : 5,
            "name" : "Mesh_5"
        },
        {
            "mesh" : 6,
            "name" : "Mesh_6"
        },
        {
            "children" : [
                0,
                1,
                2,
                3,
                4,
                5,
                6
            ],
            "name" : "TheFuture.obj.cleaner.materialmerger.gles"
        },
        {
            "children" : [
                7
            ],
            "name" : "RootNode (model correction matrix)"
        },
        {
            "children" : [
                8
            ],
            "name" : "RootNode (gltf orientation matrix)",
            "rotation" : [
                -0.7071068286895752,
                0,
                0,
                0.7071068286895752
            ]
        }
    ],
    "materials" : [
        {
            "alphaCutoff" : 0.5,
            "alphaMode" : "MASK",
            "doubleSided" : true,
            "emissiveFactor" : [
                1,
                1,
                1
            ],
            "emissiveTexture" : {
                "index" : 0
            },
            "name" : "Material.002",
            "pbrMetallicRoughness" : {
                "baseColorTexture" : {
                    "index" : 1
                },
                "metallicFactor" : 0,
                "roughnessFactor" : 0.5
            }
        },
        {
            "doubleSided" : true,
            "emissiveFactor" : [
                1,
                1,
                1
            ],
            "emissiveTexture" : {
                "index" : 2
            },
            "name" : "Material.003",
            "pbrMetallicRoughness" : {
                "baseColorTexture" : {
                    "index" : 3
                },
                "metallicFactor" : 0,
                "roughnessFactor" : 0.5
            }
        },
        {
            "doubleSided" : true,
            "emissiveFactor" : [
                1,
                1,
                1
            ],
            "emissiveTexture" : {
                "index" : 4
            },
            "name" : "Material.004",
            "pbrMetallicRoughness" : {
                "baseColorTexture" : {
                    "index" : 5
                },
                "metallicFactor" : 0,
                "roughnessFactor" : 0.5
            }
        },
        {
            "doubleSided" : true,
            "extensions" : {
                "KHR_materials_unlit" : {}
            },
            "name" : "lambert7SG",
            "pbrMetallicRoughness" : {
                "baseColorTexture" : {
                    "index" : 6
                },
                "metallicFactor" : 0,
                "roughnessFactor" : 0.9
            }
        },
        {
            "alphaCutoff" : 0.25238096714019775,
            "alphaMode" : "MASK",
            "doubleSided" : true,
            "emissiveFactor" : [
                1,
                1,
                1
            ],
            "emissiveTexture" : {
                "index" : 7
            },
            "name" : "Material.001",
            "pbrMetallicRoughness" : {
                "baseColorTexture" : {
                    "index" : 8
                },
                "metallicFactor" : 0.3851590156555176,
                "roughnessFactor" : 0.5
            }
        }
    ],
    "meshes" : [
        {
            "name" : "Mesh_0",
            "primitives" : [
                {
                    "attributes" : {
                        "POSITION" : 0,
                        "NORMAL" : 1,
                        "TEXCOORD_0" : 2
                    },
                    "indices" : 3,
                    "material" : 0
                }
            ]
        },
        {
            "name" : "Mesh_1",
            "primitives" : [
                {
                    "attributes" : {
                        "POSITION" : 4,
                        "NORMAL" : 5,
                        "TEXCOORD_0" : 6
                    },
                    "indices" : 7,
                    "material" : 1
                }
            ]
        },
        {
            "name" : "Mesh_2",
            "primitives" : [
                {
                    "attributes" : {
                        "POSITION" : 8,
                        "NORMAL" : 9,
                        "TEXCOORD_0" : 10
                    },
                    "indices" : 11,
                    "material" : 1
                }
            ]
        },
        {
            "name" : "Mesh_3",
            "primitives" : [
                {
                    "attributes" : {
                        "POSITION" : 12,
                        "NORMAL" : 13,
                        "TEXCOORD_0" : 14
                    },
                    "indices" : 15,
                    "material" : 2
                }
            ]
        },
        {
            "name" : "Mesh_4",
            "primitives" : [
                {
                    "attributes" : {
                        "POSITION" : 16,
                        "NORMAL" : 17,
                        "TEXCOORD_0" : 18
                    },
                    "indices" : 19,
                    "material" : 3
                }
            ]
        },
        {
            "name" : "Mesh_5",
            "primitives" : [
                {
                    "attributes" : {
                        "POSITION" : 20,
                        "NORMAL" : 21,
                        "TEXCOORD_0" : 22
                    },
                    "indices" : 23,
                    "material" : 4
                }
            ]
        },
        {
            "name" : "Mesh_6",
            "primitives" : [
                {
                    "attributes" : {
                        "POSITION" : 24,
                        "NORMAL" : 25,
                        "TEXCOORD_0" : 26
                    },
                    "indices" : 27,
                    "material" : 4
                }
            ]
        }
    ],
    "textures" : [
        {
            "sampler" : 0,
            "source" : 0
        },
        {
            "sampler" : 0,
            "source" : 0
        },
        {
            "sampler" : 0,
            "source" : 1
        },
        {
            "sampler" : 0,
            "source" : 1
        },
        {
            "sampler" : 0,
            "source" : 2
        },
        {
            "sampler" : 0,
            "source" : 2
        },
        {
            "sampler" : 0,
            "source" : 3
        },
        {
            "sampler" : 0,
            "source" : 3
        },
        {
            "sampler" : 0,
            "source" : 3
        }
    ],
    "images" : [
        {
            "bufferView" : 4,
            "mimeType" : "image/png",
            "name" : "capelliHIcapelliHIlambert2SG_baseColor"
        },
        {
            "bufferView" : 9,
            "mimeType" : "image/png",
            "name" : "capelliHIlambert1SG_baseColor"
        },
        {
            "bufferView" : 18,
            "mimeType" : "image/png",
            "name" : "lambert6SG_baseColor"
        },
        {
            "bufferView" : 23,
            "mimeType" : "image/png",
            "name" : "lambert7SG_baseColor"
        }
    ],
    "accessors" : [
        {
            "bufferView" : 0,
            "componentType" : 5126,
            "count" : 842,
            "max" : [
                5.199720859527588,
                6.717494964599609,
                9.014084815979004
            ],
            "min" : [
                -5.199720859527588,
                -6.743091106414795,
                -9.118885040283203
            ],
            "type" : "VEC3"
        },
        {
            "bufferView" : 1,
            "componentType" : 5126,
            "count" : 842,
            "type" : "VEC3"
        },
        {
            "bufferView" : 2,
            "componentType" : 5126,
            "count" : 842,
            "type" : "VEC2"
        },
        {
            "bufferView" : 3,
            "componentType" : 5123,
            "count" : 4626,
            "type" : "SCALAR"
        },
        {
            "bufferView" : 5,
            "componentType" : 5126,
            "count" : 9968,
            "max" : [
                6.0572662353515625,
                9.509941101074219,
                10.755197525024414
            ],
            "min" : [
                -6.50749397277832,
                -6.0364861488342285,
                -8.378803253173828
            ],
            "type" : "VEC3"
        },
        {
            "bufferView" : 6,
            "componentType" : 5126,
            "count" : 9968,
            "type" : "VEC3"
        },
        {
            "bufferView" : 7,
            "componentType" : 5126,
            "count" : 9968,
            "type" : "VEC2"
        },
        {
            "bufferView" : 8,
            "componentType" : 5123,
            "count" : 33417,
            "type" : "SCALAR"
        },
        {
            "bufferView" : 10,
            "componentType" : 5126,
            "count" : 1212,
            "max" : [
                6.063910007476807,
                8.996293067932129,
                10.79575252532959
            ],
            "min" : [
                -2.160593032836914,
                -5.796547889709473,
                -5.884030818939209
            ],
            "type" : "VEC3"
        },
        {
            "bufferView" : 11,
            "componentType" : 5126,
            "count" : 1212,
            "type" : "VEC3"
        },
        {
            "bufferView" : 12,
            "componentType" : 5126,
            "count" : 1212,
            "type" : "VEC2"
        },
        {
            "bufferView" : 13,
            "componentType" : 5123,
            "count" : 4032,
            "type" : "SCALAR"
        },
        {
            "bufferView" : 14,
            "componentType" : 5126,
            "count" : 760,
            "max" : [
                4.635095119476318,
                -5.913650989532471,
                7.755090236663818
            ],
            "min" : [
                -4.941036224365234,
                -6.749350070953369,
                6.528205871582031
            ],
            "type" : "VEC3"
        },
        {
            "bufferView" : 15,
            "componentType" : 5126,
            "count" : 760,
            "type" : "VEC3"
        },
        {
            "bufferView" : 16,
            "componentType" : 5126,
            "count" : 760,
            "type" : "VEC2"
        },
        {
            "bufferView" : 17,
            "componentType" : 5123,
            "count" : 834,
            "type" : "SCALAR"
        },
        {
            "bufferView" : 19,
            "componentType" : 5126,
            "count" : 312,
            "max" : [
                7.2617669105529785,
                1.144873023033142,
                7.989209175109863
            ],
            "min" : [
                -6.850371837615967,
                -7.4722418785095215,
                -5.127440929412842
            ],
            "type" : "VEC3"
        },
        {
            "bufferView" : 20,
            "componentType" : 5126,
            "count" : 312,
            "type" : "VEC3"
        },
        {
            "bufferView" : 21,
            "componentType" : 5126,
            "count" : 312,
            "type" : "VEC2"
        },
        {
            "bufferView" : 22,
            "componentType" : 5123,
            "count" : 336,
            "type" : "SCALAR"
        },
        {
            "bufferView" : 24,
            "componentType" : 5126,
            "count" : 11796,
            "max" : [
                9.00423526763916,
                4.831786155700684,
                9.05226993560791
            ],
            "min" : [
                -9.016075134277344,
                -8.004701614379883,
                -12.829498291015625
            ],
            "type" : "VEC3"
        },
        {
            "bufferView" : 25,
            "componentType" : 5126,
            "count" : 11796,
            "type" : "VEC3"
        },
        {
            "bufferView" : 26,
            "componentType" : 5126,
            "count" : 11796,
            "type" : "VEC2"
        },
        {
            "bufferView" : 27,
            "componentType" : 5123,
            "count" : 29088,
            "type" : "SCALAR"
        },
        {
            "bufferView" : 28,
            "componentType" : 5126,
            "count" : 9633,
            "max" : [
                8.696342468261719,
                3.7786779403686523,
                9.05226993560791
            ],
            "min" : [
                -9.00234603881836,
                -7.680768013000488,
                -13.75858211517334
            ],
            "type" : "VEC3"
        },
        {
            "bufferView" : 29,
            "componentType" : 5126,
            "count" : 9633,
            "type" : "VEC3"
        },
        {
            "bufferView" : 30,
            "componentType" : 5126,
            "count" : 9633,
            "type" : "VEC2"
        },
        {
            "bufferView" : 31,
            "componentType" : 5123,
            "count" : 24702,
            "type" : "SCALAR"
        }
    ],
    "bufferViews" : [
        {
            "buffer" : 0,
            "byteLength" : 10104,
            "byteOffset" : 0
        },
        {
            "buffer" : 0,
            "byteLength" : 10104,
            "byteOffset" : 10104
        },
        {
            "buffer" : 0,
            "byteLength" : 6736,
            "byteOffset" : 20208
        },
        {
            "buffer" : 0,
            "byteLength" : 9252,
            "byteOffset" : 26944
        },
        {
            "buffer" : 0,
            "byteLength" : 90385,
            "byteOffset" : 36196
        },
        {
            "buffer" : 0,
            "byteLength" : 119616,
            "byteOffset" : 126584
        },
        {
            "buffer" : 0,
            "byteLength" : 119616,
            "byteOffset" : 246200
        },
        {
            "buffer" : 0,
            "byteLength" : 79744,
            "byteOffset" : 365816
        },
        {
            "buffer" : 0,
            "byteLength" : 66834,
            "byteOffset" : 445560
        },
        {
            "buffer" : 0,
            "byteLength" : 278042,
            "byteOffset" : 512396
        },
        {
            "buffer" : 0,
            "byteLength" : 14544,
            "byteOffset" : 790440
        },
        {
            "buffer" : 0,
            "byteLength" : 14544,
            "byteOffset" : 804984
        },
        {
            "buffer" : 0,
            "byteLength" : 9696,
            "byteOffset" : 819528
        },
        {
            "buffer" : 0,
            "byteLength" : 8064,
            "byteOffset" : 829224
        },
        {
            "buffer" : 0,
            "byteLength" : 9120,
            "byteOffset" : 837288
        },
        {
            "buffer" : 0,
            "byteLength" : 9120,
            "byteOffset" : 846408
        },
        {
            "buffer" : 0,
            "byteLength" : 6080,
            "byteOffset" : 855528
        },
        {
            "buffer" : 0,
            "byteLength" : 1668,
            "byteOffset" : 861608
        },
        {
            "buffer" : 0,
            "byteLength" : 60129,
            "byteOffset" : 863276
        },
        {
            "buffer" : 0,
            "byteLength" : 3744,
            "byteOffset" : 923408
        },
        {
            "buffer" : 0,
            "byteLength" : 3744,
            "byteOffset" : 927152
        },
        {
            "buffer" : 0,
            "byteLength" : 2496,
            "byteOffset" : 930896
        },
        {
            "buffer" : 0,
            "byteLength" : 672,
            "byteOffset" : 933392
        },
        {
            "buffer" : 0,
            "byteLength" : 333626,
            "byteOffset" : 934064
        },
        {
            "buffer" : 0,
            "byteLength" : 141552,
            "byteOffset" : 1267692
        },
        {
            "buffer" : 0,
            "byteLength" : 141552,
            "byteOffset" : 1409244
        },
        {
            "buffer" : 0,
            "byteLength" : 94368,
            "byteOffset" : 1550796
        },
        {
            "buffer" : 0,
            "byteLength" : 58176,
            "byteOffset" : 1645164
        },
        {
            "buffer" : 0,
            "byteLength" : 115596,
            "byteOffset" : 1703340
        },
        {
            "buffer" : 0,
            "byteLength" : 115596,
            "byteOffset" : 1818936
        },
        {
            "buffer" : 0,
            "byteLength" : 77064,
            "byteOffset" : 1934532
        },
        {
            "buffer" : 0,
            "byteLength" : 49404,
            "byteOffset" : 2011596
        }
    ],
    "samplers" : [
        {
            "magFilter" : 9729,
            "minFilter" : 9987
        }
    ],
    "buffers" : [
        {
            "byteLength" : 2061000,
            "uri" : "data:application/octet-stream;base64,"
        }
    ]
}
